#!OML:ASF F:\VICON\USERDATA\INSTALL\rory3\rory3.ASF
:FULLY-SPECIFIED
:DEGREES
10
root -0.4045600000000001 17.5801 -31.12020000000003 4.65614 -7.350199999999999 -0.8423060000000004
lfemur 4.3923299999999585 1.6039299999999972 -24.370800000000003
ltibia 72.22459999999997
lfoot 39.049000000000085 -19.744900000000023
ltoes 5.145120000000022
rfemur -38.208099999999995 -0.10434099999999757 29.3588
rtibia 36.806600000000024
rfoot -1.8275899999999887 5.252890000000012
rtoes 6.677630000000001
lowerback 1.0 -0.5038020000000014 -0.3570600000000015
upperback 0.027805799999999326 -0.5617450000000019 1.8967500000000008
thorax -9.11278 -0.20628500000000122 2.385930000000002
lowerneck -18.7014 -2.034909999999997 -2.48228
upperneck 13.280299999999997 -2.375760000000001 1.5802300000000011
head 7.18082 -1.117269999999999 0.647125
lclavicle -2.8823799999999946e-15 1.0336799999999999e-14
lhumerus -42.831699999999984 -11.693499999999998 95.0915
lradius 109.251
lwrist 36.3297
lhand -25.928699999999985 -0.23478499999999963
lfingers 7.12502
lthumb 0.6146049999999921 29.7441
rclavicle -2.8823799999999946e-15 1.0336799999999999e-14
rhumerus -58.625800000000005 2.521859999999979 -90.27040000000001
rradius 100.77299999999998
rwrist -12.5324
rhand -20.850799999999996 1.0
rfingers 7.12502
rthumb 5.518369999999996 11.566699999999997
11
root -0.41261800000000043 17.4627 -30.59999999999999 4.30118 -7.9212000000000025 -1.0719900000000018
lfemur 2.889870000000034 2.9527 -23.299499999999995
ltibia 76.36770000000003
lfoot 39.23219999999998 -20.671499999999988
ltoes 7.3075199999999825
rfemur -37.84750000000002 0.6982719999999971 29.5667
rtibia 40.43899999999998
rfoot -4.7859799999999915 2.6353999999999944
rtoes 6.635059999999996
lowerback 1.0 -0.42923299999999887 -0.5811880000000025
upperback -0.146683 -0.471057999999998 2.2175800000000017
thorax -9.50058 -0.13814499999999857 2.851490000000003
lowerneck -17.502100000000002 -1.85041 -3.0950000000000006
upperneck 13.022999999999998 -2.023019999999999 1.7092299999999987
head 6.89635 -0.9741340000000012 0.8367070000000001
lclavicle 4.174479999999994e-15 5.168400000000001e-15
lhumerus -43.77850000000001 -10.244900000000001 95.4579
lradius 107.672
lwrist 35.705700000000014
lhand -25.749100000000013 0.6219170000000007
lfingers 7.12502
lthumb 0.7880469999999882 30.6002
rclavicle 4.174479999999994e-15 5.168400000000001e-15
rhumerus -58.06649999999999 3.587959999999992 -90.51300000000002
rradius 100.403
rwrist -12.677699999999998
rhand -21.113800000000005 1.0
rfingers 7.12502
rthumb 5.264479999999997 11.549500000000009
12
root -0.4215710000000002 17.339 -30.08960000000005 3.89581 -7.8930500000000094 -1.1810100000000001
lfemur 1.2916299999999765 3.6783199999999923 -22.2042
ltibia 80.44769999999995
lfoot 38.23070000000002 -20.093600000000013
ltoes 8.14042000000004
rfemur -37.42789999999997 1.3293500000000003 29.6207
rtibia 43.99589999999998
rfoot -7.32231 1.2776299999999958
rtoes 8.339770000000005
lowerback 1.0 -0.4444710000000006 -0.6519690000000022
upperback -0.13118499999999966 -0.4875630000000013 2.371929999999999
thorax -9.75484 -0.13482299999999897 3.0752599999999966
lowerneck -17.333100000000005 -1.8209400000000033 -3.2972299999999986
upperneck 13.104599999999996 -1.9327899999999985 1.669660000000001
head 6.894 -0.9459549999999977 0.8674170000000001
lclavicle 3.39922e-14 -3.1805499999999984e-15
lhumerus -44.37070000000001 -9.36036 95.7428
lradius 106.09800000000001
lwrist 35.754400000000004
lhand -26.381599999999995 0.9684499999999995
lfingers 7.12502
lthumb 0.17719399999999386 30.9481
rclavicle 3.39922e-14 -3.1805499999999984e-15
rhumerus -56.830200000000005 4.215610000000001 -90.89179999999999
rradius 99.94320000000002
rwrist -12.582499999999998
rhand -21.241199999999996 1.0
rfingers 7.12502
rthumb 5.141429999999998 11.349499999999995
13
root -0.4374650000000004 17.264 -29.570099999999986 3.5093 -7.702650000000002 -1.2586999999999993
lfemur -0.5908180000000236 4.32303 -21.0275
ltibia 84.29280000000006
lfoot 36.221099999999986 -19.66659999999998
ltoes 6.751060000000006
rfemur -36.79780000000004 2.14843 29.6159
rtibia 47.07029999999999
rfoot -9.859439999999982 -0.2674979999999847
rtoes 10.731999999999987
lowerback 1.0 -0.31891299999999967 -0.5126039999999972
upperback 0.09318579999999888 -0.2994850000000002 2.3229500000000005
thorax -9.71594 -0.05574899999999944 2.897300000000001
lowerneck -17.848300000000002 -2.002649999999998 -3.141840000000001
upperneck 13.358200000000004 -2.1957699999999947 1.6288599999999975
head 7.06776 -1.065880000000003 0.7961579999999997
lclavicle -2.9817700000000157e-16 -1.5107599999999998e-14
lhumerus -44.465900000000005 -9.33051 95.886
lradius 104.314
lwrist 36.16530000000001
lhand -27.083599999999997 0.6741390000000005
lfingers 7.12502
lthumb -0.5008490000000041 30.6533
rclavicle -2.9817700000000157e-16 -1.5107599999999998e-14
rhumerus -55.06770000000001 4.16511999999999 -91.35850000000002
rradius 99.57570000000001
rwrist -12.216599999999996
rhand -21.8064 1.0
rfingers 7.12502
rthumb 4.595700000000002 10.934599999999996
14
root -0.45917799999999986 17.1521 -29.082099999999986 3.198300000000001 -7.532880000000015 -1.77158
lfemur -2.8632100000000236 5.0703899999999935 -19.2264
ltibia 88.29859999999996
lfoot 35.17979999999995 -19.763300000000008
ltoes 8.533989999999987
rfemur -36.00320000000002 3.120079999999999 30.2656
rtibia 49.6262
rfoot -12.166299999999989 -3.1887999999999983
rtoes 10.039700000000003
lowerback 1.0 0.018310699999999347 0.20740899999999884
upperback 0.5955699999999969 0.2670780000000018 2.1140299999999996
thorax -9.42793 0.16886799999999963 2.1111599999999995
lowerneck -19.4672 -2.3419200000000036 -2.23573
upperneck 13.6815 -2.8118700000000048 1.3967900000000013
head 7.4438699999999995 -1.3256999999999985 0.48782099999999984
lclavicle -1.4014300000000029e-14 5.168400000000001e-15
lhumerus -43.74839999999999 -10.347799999999996 95.6478
lradius 102.41599999999998
lwrist 36.51229999999999
lhand -28.219 1.0758100000000006
lfingers 7.12502
lthumb -1.5974300000000006 31.0496
rclavicle -1.4014300000000029e-14 5.168400000000001e-15
rhumerus -52.5183 3.2171100000000106 -91.9263
rradius 99.16020000000002
rwrist -12.0177
rhand -21.427999999999997 1.0
rfingers 7.12502
rthumb 4.96111 10.340200000000003
15
root -0.484346 17.0534 -28.611799999999956 3.1657699999999993 -7.008620000000011 -3.193889999999997
lfemur -5.589419999999981 5.476970000000006 -16.266499999999997
ltibia 92.25640000000003
lfoot 34.46229999999996 -20.113700000000016
ltoes 13.538699999999997
rfemur -34.85739999999997 3.9997099999999994 31.9544
rtibia 51.41349999999998
rfoot -14.501599999999982 -6.069260000000001
rtoes 7.131859999999996
lowerback 1.0 -0.3101699999999996 1.1118700000000004
upperback 0.26668799999999837 0.12348399999999893 2.8973200000000014
thorax -10.1388 0.08449299999999937 2.5045999999999955
lowerneck -17.8969 -2.123260000000003 -2.8343299999999996
upperneck 13.056599999999996 -2.385260000000001 1.3532199999999985
head 6.97461 -1.165439999999998 0.635494
lclavicle 1.808939999999998e-14 -3.4191000000000007e-14
lhumerus -44.7941 -8.827469999999998 96.1171
lradius 100.74300000000001
lwrist 36.3084
lhand -29.815399999999997 1.3244100000000003
lfingers 7.12502
lthumb -3.139199999999999 31.281
rclavicle 1.808939999999998e-14 -3.4191000000000007e-14
rhumerus -51.5096 4.656219999999989 -92.18940000000002
rradius 98.8833
rwrist -11.8813
rhand -20.815 1.0
rfingers 7.12502
rthumb 5.55301 10.115300000000003
16
root -0.5062309999999995 16.9776 -28.125999999999973 3.47131 -6.496830000000001 -4.733510000000004
lfemur -8.78488 5.88838 -13.33190000000001
ltibia 95.87020000000001
lfoot 32.77069999999995 -20.471000000000018
ltoes 16.224300000000056
rfemur -33.67320000000003 4.996189999999995 33.68959999999999
rtibia 52.698200000000014
rfoot -17.023800000000048 -8.53425
rtoes 8.614980000000001
lowerback 1.0 -0.4996459999999987 2.4430000000000014
upperback 0.09031479999999836 0.226198 3.44827
thorax -10.380799999999999 0.08294799999999902 2.3294599999999988
lowerneck -17.347300000000004 -2.096470000000003 -2.9310500000000004
upperneck 12.6628 -2.320590000000001 1.245290000000002
head 6.75307 -1.1507400000000023 0.628733
lclavicle -5.0690099999999936e-15 1.3914899999999988e-14
lhumerus -45.54119999999999 -8.04655 96.3842
lradius 98.9859
lwrist 35.78560000000001
lhand -29.964399999999998 1.4249599999999991
lfingers 7.12502
lthumb -3.2830999999999966 31.3794
rclavicle -5.0690099999999936e-15 1.3914899999999988e-14
rhumerus -49.9394 5.4945899999999845 -92.5462
rradius 98.66630000000004
rwrist -11.426299999999998
rhand -20.7815 1.0
rfingers 7.12502
rthumb 5.585299999999998 10.354500000000002
